<svg xmlns="http://www.w3.org/2000/svg" width="42" height="42" fill="none" viewBox="0 0 42 42"><circle cx="21" cy="21" r="21" fill="#eceef2"/><mask id="male-circle_svg__a" width="42" height="42" x="0" y="0" maskUnits="userSpaceOnUse"><circle cx="21" cy="21" r="21" fill="#eceef2"/></mask><g mask="url(#male-circle_svg__a)"><path fill="#bcc1cc" d="M14.263 22.623c.242.876 1.197 1.356 1.38 2.246.031.147.063.31.096.49.246 1.331.695 1.944 1.228 2.22.398.205.709.595.63 1.036-.055.31-.174.608-.4.816-.52.473-2.07.675-3.75.895-1.26.164-2.592.339-3.613.644-2.443.727-2.742 4.037-2.815 6.318a3.484 3.484 0 002.937 3.521l9.974 1.576a4 4 0 001.444-.035l10.016-2.095c2.04-.427 3.428-2.358 2.864-4.364-.46-1.636-1.155-3.386-2.147-4.213-.942-.786-2.864-1.1-4.605-1.384-1.405-.23-2.691-.44-3.248-.863-.388-.294-.448-.848-.409-1.332a.56.56 0 01.26-.409c.882-.597 1.106-1.223 1.477-2.666.076-.299.136-.544.184-.744.116-.483.683-.887.922-1.323.175-.315.862-2.777.862-3.223 0-.497-.676-1.067-.564-1.55.158-.677.318-1.562.318-2.355 0-2.004-1.952-4.829-6.649-4.829-1.683 0-2.276.621-2.839 1.212a1.142 1.142 0 01-.857.332c-2.607-.05-2.873 1.175-3.066 2.3-.176 1.03.212 2.85.45 3.811.044.183-.289.539-.45.636-.368.22.124 2.443.37 3.332z"/></g></svg>
