<svg xmlns="http://www.w3.org/2000/svg" width="42" height="42" fill="none"><g clip-path="url(#a)"><path fill="#ECEEF2" d="M21.266 41.475C32.717 41.475 42 32.194 42 20.745S32.717.013 21.266.013C9.816.014.532 9.295.532 20.744s9.283 20.731 20.734 20.731"/><path fill="#000" d="M11.949 19.867a1.866 1.866 0 1 0 0-3.732 1.866 1.866 0 0 0 0 3.732"/><path fill="#000" fillRule="evenodd" d="M26.044 30.49c.29 1.953-.396 3.77-1.887 4.53-1.49.76-3.364.246-4.772-1.136 1.01-.185 2.208-.558 3.559-1.247 1.35-.688 2.356-1.437 3.1-2.147" clipRule="evenodd"/><path fill="#000" d="M26.048 19.867a1.866 1.866 0 1 0 0-3.732 1.866 1.866 0 0 0 0 3.732"/><path fill="#000" fillRule="evenodd" d="m20.765 15.72 2.955 7.878h-5.91z" clipRule="evenodd"/></g><defs><clipPath id="a"><path fill="#fff" d="M0 0h42v41.475H0z"/></clipPath></defs></svg>